<?xml version="1.0" encoding="utf-8"?>
<!-- Generator: Adobe Illustrator 24.1.2, SVG Export Plug-In . SVG Version: 6.00 Build 0)  -->
<svg version="1.1" id="Layer_1" xmlns="http://www.w3.org/2000/svg" xmlns:xlink="http://www.w3.org/1999/xlink" x="0px" y="0px"
	 viewBox="0 0 1664 1792" style="enable-background:new 0 0 1664 1792;" xml:space="preserve">
<path d="M255,1440c0,26.7,9.3,49.3,28,68s41.3,28,68,28s49.3-9.3,68-28s28-41.3,28-68s-9.3-49.3-28-68c-18.7-18.7-41.3-28-68-28
	s-49.3,9.3-68,28C264.4,1390.7,255,1413.3,255,1440z M31,1728c0-166,25.2-309.5,75.5-430.5S241.4,1056.3,360,937
	c54-53.3,119-112,195-176l20-379c1.3-10.7,6.7-19.3,16-26l384-224c4.7-2.7,10-4,16-4c8,0,15.7,3,23,9l64,64c8.7,9.3,11.3,20,8,32
	l-85,276l281,281l276-85c2-0.7,5-1,9-1c9.3,0,17,3,23,9l64,64c11.3,12.7,13,25.7,5,39l-224,384c-6.7,9.3-15.3,14.7-26,16l-379,20
	c-64,76-122.7,141-176,195c-125.3,124.7-244.7,210.7-358,258s-257,71-431,71c-9.3,0-17.3-3.2-24-9.5S31,1736.7,31,1728z"/>
</svg>
