<svg id="Layer_1" data-name="Layer 1" xmlns="http://www.w3.org/2000/svg" viewBox="0 0 737 95.09"><defs><style>.cls-1{fill:#1a1a1a;}</style></defs><polygon class="cls-1" points="261.51 0 261.51 0 237.74 23.77 213.96 0 213.96 0 190.19 0 190.19 95.09 213.96 95.09 213.96 33.62 220.93 40.58 220.93 40.58 225.39 45.05 235.59 55.24 235.59 55.24 237.74 57.4 261.51 33.62 261.51 95.09 285.29 95.09 285.29 0 261.51 0"/><polygon class="cls-1" points="623.11 47.71 641.91 28.91 641.89 28.9 641.9 28.9 641.9 0 618.12 0 618.12 18.98 606.25 30.85 594.35 18.95 594.35 0 570.58 0 570.58 28.9 570.62 28.9 570.6 28.91 589.4 47.71 570.6 66.51 570.58 66.83 570.58 95.09 594.35 95.09 594.35 76.47 606.25 64.57 618.12 76.44 618.12 95.09 641.9 95.09 641.9 66.83 641.91 66.51 623.11 47.71"/><polygon class="cls-1" points="713.22 59.43 713.22 71.32 689.45 71.32 689.45 0 665.67 0 665.67 95.09 689.45 95.09 713.22 95.09 737 95.09 737 59.43 713.22 59.43"/><rect class="cls-1" x="499.25" y="35.66" width="47.55" height="23.77"/><polygon class="cls-1" points="475.48 23.77 475.48 0 427.93 0 404.16 0 404.16 59.43 427.93 59.43 451.7 59.43 451.7 71.32 404.16 71.32 404.16 95.09 475.48 95.09 475.48 71.32 475.48 59.43 475.48 35.66 427.93 35.66 427.93 23.77 475.48 23.77"/><polygon class="cls-1" points="380.38 23.77 380.38 0 332.84 0 309.06 0 309.06 95.09 332.84 95.09 380.38 95.09 380.38 71.32 332.84 71.32 332.84 59.43 362.02 59.43 362.02 35.66 332.84 35.66 332.84 23.77 380.38 23.77"/><path class="cls-1" d="M237.74,95.1H190.19v95.09H214V166.42h23.77v23.77h23.78V95.1Zm0,47.54H214V118.87h23.77Z" transform="translate(-95.1 -95.1)"/><polygon class="cls-1" points="71.32 23.77 71.32 0 23.77 0 0 0 0 95.09 23.77 95.09 71.32 95.09 71.32 71.32 71.32 47.55 47.55 47.55 47.55 71.32 23.77 71.32 23.77 23.77 71.32 23.77"/></svg>