<svg xmlns="http://www.w3.org/2000/svg" viewBox="0 0 132.79 26.94"><defs><style>.cls-1{fill:#231f20;}</style></defs><g id="a">
<line class="cls-1" x1="54.4" y1="25.18" x2="54.4" y2="22.61"/>
<line class="cls-1" x1="54.4" y1="22.61" x2="56.1" y2="20.9"/>
<line class="cls-1" x1="56.1" y1="20.9" x2="58.68" y2="20.9"/>
<line class="cls-1" x1="58.68" y1="20.9" x2="60.4" y2="22.61"/>
<line class="cls-1" x1="60.4" y1="22.61" x2="60.4" y2="26.94"/>
<line class="cls-1" x1="60.4" y1="26.94" x2="58.63" y2="25.23"/>
<line class="cls-1" x1="58.63" y1="25.23" x2="58.63" y2="22.56"/>
<line class="cls-1" x1="58.63" y1="22.56" x2="56.15" y2="22.56"/>
<line class="cls-1" x1="56.15" y1="22.56" x2="56.15" y2="25.23"/>
<line class="cls-1" x1="56.15" y1="25.23" x2="58.51" y2="25.23"/>
<line class="cls-1" x1="58.51" y1="25.23" x2="56.85" y2="26.89"/>
<line class="cls-1" x1="56.85" y1="26.89" x2="56.1" y2="26.89"/>
<line class="cls-1" x1="56.1" y1="26.89" x2="54.4" y2="25.18"/></g><g id="b">
<line class="cls-1" y1="11.13" y2="4.29"/>
<line class="cls-1" y1="4.29" x2="1.75" y2="4.29"/>
<line class="cls-1" x1="1.75" y1="4.29" x2="1.75" y2="12.88"/>
<line class="cls-1" x1="1.75" y1="12.88" y2="11.13"/>
<line class="cls-1" x1="1.75" y1="8.51" x2="3.42" y2="6.85"/>
<line class="cls-1" x1="3.42" y1="6.85" x2="4.28" y2="6.85"/>
<line class="cls-1" x1="4.28" y1="6.85" x2="6" y2="8.56"/>
<line class="cls-1" x1="6" y1="8.56" x2="6" y2="11.13"/>
<line class="cls-1" x1="6" y1="11.13" x2="4.28" y2="12.84"/>
<line class="cls-1" x1="4.28" y1="12.84" x2="3.54" y2="12.84"/>
<line class="cls-1" x1="3.54" y1="12.84" x2="1.87" y2="11.18"/>
<line class="cls-1" x1="1.87" y1="11.18" x2="4.23" y2="11.18"/>
<line class="cls-1" x1="4.23" y1="11.18" x2="4.23" y2="8.51"/>
<line class="cls-1" x1="4.23" y1="8.51" x2="1.75" y2="8.51"/></g><g id="c">
<line class="cls-1" x1="0.19" y1="9.87" x2="0.19" y2="7.3"/>
<line class="cls-1" x1="0.19" y1="7.3" x2="1.9" y2="5.59"/>
<line class="cls-1" x1="1.9" y1="5.59" x2="4.13" y2="5.59"/>
<line class="cls-1" x1="4.13" y1="5.59" x2="5.81" y2="7.25"/>
<line class="cls-1" x1="5.81" y1="7.25" x2="1.94" y2="7.25"/>
<line class="cls-1" x1="1.94" y1="7.25" x2="1.94" y2="9.92"/>
<line class="cls-1" x1="1.94" y1="9.92" x2="5.67" y2="9.92"/>
<line class="cls-1" x1="5.67" y1="9.92" x2="4.01" y2="11.58"/>
<line class="cls-1" x1="4.01" y1="11.58" x2="1.9" y2="11.58"/>
<line class="cls-1" x1="1.9" y1="11.58" x2="0.19" y2="9.87"/></g><g id="d">
<line class="cls-1" x1="0.01" y1="11.13" x2="0.01" y2="8.56"/>
<line class="cls-1" x1="0.01" y1="8.56" x2="1.72" y2="6.85"/>
<line class="cls-1" x1="1.72" y1="6.85" x2="2.57" y2="6.85"/>
<line class="cls-1" x1="2.57" y1="6.85" x2="4.24" y2="8.51"/>
<line class="cls-1" x1="4.24" y1="8.51" x2="1.76" y2="8.51"/>
<line class="cls-1" x1="1.76" y1="8.51" x2="1.76" y2="11.18"/>
<line class="cls-1" x1="1.76" y1="11.18" x2="4.12" y2="11.18"/>
<line class="cls-1" x1="4.12" y1="11.18" x2="2.45" y2="12.84"/>
<line class="cls-1" x1="2.45" y1="12.84" x2="1.72" y2="12.84"/>
<line class="cls-1" x1="1.72" y1="12.84" x2="0.01" y2="11.13"/>
<line class="cls-1" x1="4.24" y1="11.13" x2="4.24" y2="4.29"/>
<line class="cls-1" x1="4.24" y1="4.29" x2="5.99" y2="4.29"/>
<line class="cls-1" x1="5.99" y1="4.29" x2="5.99" y2="12.88"/>
<line class="cls-1" x1="5.99" y1="12.88" x2="4.24" y2="11.13"/></g><g id="e">
<line class="cls-1" x1="0.05" y1="9.87" x2="0.05" y2="7.3"/>
<line class="cls-1" x1="0.05" y1="7.3" x2="1.76" y2="5.59"/>
<line class="cls-1" x1="1.76" y1="5.59" x2="4.24" y2="5.59"/>
<line class="cls-1" x1="4.24" y1="5.59" x2="5.94" y2="7.3"/>
<line class="cls-1" x1="5.94" y1="7.3" x2="5.94" y2="8.58"/>
<line class="cls-1" x1="5.94" y1="8.58" x2="4.41" y2="10.13"/>
<line class="cls-1" x1="4.41" y1="10.13" x2="2.86" y2="8.58"/>
<line class="cls-1" x1="2.86" y1="8.58" x2="4.19" y2="8.58"/>
<line class="cls-1" x1="4.19" y1="8.58" x2="4.19" y2="7.25"/>
<line class="cls-1" x1="4.19" y1="7.25" x2="1.81" y2="7.25"/>
<line class="cls-1" x1="1.81" y1="7.25" x2="1.81" y2="9.92"/>
<line class="cls-1" x1="1.81" y1="9.92" x2="2.96" y2="9.92"/>
<line class="cls-1" x1="2.96" y1="9.92" x2="4.62" y2="11.58"/>
<line class="cls-1" x1="4.62" y1="11.58" x2="1.76" y2="11.58"/>
<line class="cls-1" x1="1.76" y1="11.58" x2="0.05" y2="9.87"/></g><g id="f">
<line class="cls-1" x1="17.01" y1="9.83" x2="17.01" y2="3.03"/>
<line class="cls-1" x1="17.01" y1="3.03" x2="18.77" y2="1.28"/>
<line class="cls-1" x1="18.77" y1="1.28" x2="20.52" y2="1.28"/>
<line class="cls-1" x1="20.52" y1="1.28" x2="20.52" y2="3.03"/>
<line class="cls-1" x1="20.52" y1="3.03" x2="18.77" y2="1.28"/>
<line class="cls-1" x1="18.77" y1="1.28" x2="18.77" y2="3.83"/>
<line class="cls-1" x1="18.77" y1="3.83" x2="20.52" y2="3.83"/>
<line class="cls-1" x1="20.52" y1="3.83" x2="18.77" y2="5.58"/>
<line class="cls-1" x1="18.77" y1="5.58" x2="18.77" y2="9.83"/>
<line class="cls-1" x1="18.77" y1="9.83" x2="17.01" y2="9.83"/></g><g id="g">
<line class="cls-1" x1="15.77" y1="5.56" x2="15.77" y2="2.99"/>
<line class="cls-1" x1="15.77" y1="2.99" x2="17.48" y2="1.28"/>
<line class="cls-1" x1="17.48" y1="1.28" x2="20.05" y2="1.28"/>
<line class="cls-1" x1="20.05" y1="1.28" x2="21.76" y2="2.99"/>
<line class="cls-1" x1="21.76" y1="2.99" x2="21.76" y2="8.08"/>
<line class="cls-1" x1="21.76" y1="8.08" x2="20" y2="9.83"/>
<line class="cls-1" x1="20" y1="9.83" x2="18.25" y2="8.08"/>
<line class="cls-1" x1="18.25" y1="8.08" x2="20" y2="8.08"/>
<line class="cls-1" x1="20" y1="8.08" x2="20" y2="2.94"/>
<line class="cls-1" x1="20" y1="2.94" x2="17.52" y2="2.94"/>
<line class="cls-1" x1="17.52" y1="2.94" x2="17.52" y2="5.61"/>
<line class="cls-1" x1="17.52" y1="5.61" x2="19.88" y2="5.61"/>
<line class="cls-1" x1="19.88" y1="5.61" x2="18.21" y2="7.27"/>
<line class="cls-1" x1="18.21" y1="7.27" x2="17.48" y2="7.27"/>
<line class="cls-1" x1="17.48" y1="7.27" x2="15.77" y2="5.56"/></g><g id="h">
<line class="cls-1" x1="16.08" y1="1.25" x2="16.08" y2="8.09"/>
<line class="cls-1" x1="16.08" y1="8.09" x2="17.84" y2="9.85"/>
<line class="cls-1" x1="17.84" y1="9.85" x2="17.84" y2="1.25"/>
<line class="cls-1" x1="17.84" y1="1.25" x2="16.08" y2="1.25"/>
<line class="cls-1" x1="17.84" y1="5.47" x2="19.51" y2="3.81"/>
<line class="cls-1" x1="19.51" y1="3.81" x2="19.75" y2="3.81"/>
<line class="cls-1" x1="19.75" y1="3.81" x2="21.45" y2="5.52"/>
<line class="cls-1" x1="21.45" y1="5.52" x2="21.45" y2="9.8"/>
<line class="cls-1" x1="21.45" y1="9.8" x2="19.7" y2="9.8"/>
<line class="cls-1" x1="19.7" y1="9.8" x2="19.7" y2="5.47"/>
<line class="cls-1" x1="19.7" y1="5.47" x2="17.84" y2="5.47"/></g><g id="i">
<line class="cls-1" x1="35.76" y1="8.1" x2="35.76" y2="3.81"/>
<line class="cls-1" x1="35.76" y1="3.81" x2="37.51" y2="3.81"/>
<line class="cls-1" x1="37.51" y1="3.81" x2="37.51" y2="9.85"/>
<line class="cls-1" x1="37.51" y1="9.85" x2="35.76" y2="8.1"/>
<line class="cls-1" x1="35.76" y1="1.26" x2="37.51" y2="1.26"/>
<line class="cls-1" x1="37.51" y1="1.26" x2="37.51" y2="3.01"/>
<line class="cls-1" x1="37.51" y1="3.01" x2="35.76" y2="1.26"/></g><g id="j">
<line class="cls-1" x1="36.63" y1="2.55" x2="38.39" y2="2.55"/>
<line class="cls-1" x1="38.39" y1="2.55" x2="38.38" y2="9.35"/>
<line class="cls-1" x1="38.38" y1="9.35" x2="36.63" y2="11.11"/>
<line class="cls-1" x1="36.63" y1="11.11" x2="34.88" y2="9.35"/>
<line class="cls-1" x1="34.88" y1="9.35" x2="36.63" y2="9.35"/>
<line class="cls-1" x1="36.63" y1="9.35" x2="36.63" y2="2.55"/>
<line class="cls-1" x1="36.63" x2="38.39"/>
<line class="cls-1" x1="38.39" x2="38.39" y2="1.76"/>
<line class="cls-1" x1="38.39" y1="1.76" x2="36.63"/></g><g id="k">
<line class="cls-1" x1="33.6" y1="1.25" x2="35.36" y2="1.25"/>
<line class="cls-1" x1="35.36" y1="1.25" x2="35.36" y2="3.81"/>
<line class="cls-1" x1="35.36" y1="3.81" x2="37.03" y2="3.81"/>
<line class="cls-1" x1="37.03" y1="3.81" x2="35.36" y2="5.47"/>
<line class="cls-1" x1="35.36" y1="5.47" x2="39.68" y2="9.8"/>
<line class="cls-1" x1="39.68" y1="9.8" x2="37.33" y2="9.8"/>
<line class="cls-1" x1="37.33" y1="9.8" x2="35.36" y2="7.84"/>
<line class="cls-1" x1="35.36" y1="7.84" x2="35.36" y2="9.85"/>
<line class="cls-1" x1="35.36" y1="9.85" x2="33.6" y2="8.09"/>
<line class="cls-1" x1="33.6" y1="8.09" x2="33.6" y2="1.25"/></g><g id="l">
<line class="cls-1" x1="35.76" y1="8.1" x2="35.76" y2="1.26"/>
<line class="cls-1" x1="35.76" y1="1.26" x2="37.52" y2="1.26"/>
<line class="cls-1" x1="37.52" y1="1.26" x2="37.52" y2="9.85"/>
<line class="cls-1" x1="37.52" y1="9.85" x2="35.76" y2="8.1"/></g><g id="m">
<line class="cls-1" x1="43.82" y1="8.08" x2="43.82" y2="2.03"/>
<line class="cls-1" x1="43.82" y1="2.03" x2="45.57" y2="3.75"/>
<line class="cls-1" x1="45.57" y1="3.75" x2="47.25" y2="2.08"/>
<line class="cls-1" x1="47.25" y1="2.08" x2="47.48" y2="2.08"/>
<line class="cls-1" x1="47.48" y1="2.08" x2="49.19" y2="3.75"/>
<line class="cls-1" x1="49.19" y1="3.75" x2="50.86" y2="2.08"/>
<line class="cls-1" x1="50.86" y1="2.08" x2="51.1" y2="2.08"/>
<line class="cls-1" x1="51.1" y1="2.08" x2="52.81" y2="3.8"/>
<line class="cls-1" x1="52.81" y1="3.8" x2="52.81" y2="8.11"/>
<line class="cls-1" x1="52.81" y1="8.11" x2="51.06" y2="6.41"/>
<line class="cls-1" x1="51.06" y1="6.41" x2="51.06" y2="3.75"/>
<line class="cls-1" x1="51.06" y1="3.75" x2="49.19" y2="3.75"/>
<line class="cls-1" x1="49.19" y1="3.75" x2="49.19" y2="8.08"/>
<line class="cls-1" x1="49.19" y1="8.08" x2="47.44" y2="8.08"/>
<line class="cls-1" x1="47.44" y1="8.08" x2="47.44" y2="3.75"/>
<line class="cls-1" x1="47.44" y1="3.75" x2="45.57" y2="3.75"/>
<line class="cls-1" x1="45.57" y1="3.75" x2="45.57" y2="8.08"/>
<line class="cls-1" x1="45.57" y1="8.08" x2="43.82" y2="8.08"/></g><g id="n">
<line class="cls-1" x1="45.63" y1="8.04" x2="45.63" y2="1.99"/>
<line class="cls-1" x1="45.63" y1="1.99" x2="47.39" y2="3.71"/>
<line class="cls-1" x1="47.39" y1="3.71" x2="49.05" y2="2.04"/>
<line class="cls-1" x1="49.13" y1="2.04" x2="49.3" y2="2.04"/>
<line class="cls-1" x1="49.3" y1="2.04" x2="51.01" y2="3.76"/>
<line class="cls-1" x1="51.01" y1="3.76" x2="51.01" y2="8.09"/>
<line class="cls-1" x1="51.01" y1="8.15" x2="49.25" y2="6.37"/>
<line class="cls-1" x1="49.25" y1="6.37" x2="49.25" y2="3.71"/>
<line class="cls-1" x1="49.25" y1="3.71" x2="47.39" y2="3.71"/>
<line class="cls-1" x1="47.39" y1="3.71" x2="47.39" y2="8.04"/>
<line class="cls-1" x1="47.39" y1="8.04" x2="45.63" y2="8.04"/></g><g id="o">
<line class="cls-1" x1="71.71" y1="6.77" x2="71.71" y2="4.21"/>
<line class="cls-1" x1="71.71" y1="4.21" x2="73.42" y2="2.49"/>
<line class="cls-1" x1="73.42" y1="2.49" x2="75.99" y2="2.49"/>
<line class="cls-1" x1="75.99" y1="2.49" x2="77.71" y2="4.21"/>
<line class="cls-1" x1="77.71" y1="4.21" x2="77.71" y2="6.77"/>
<line class="cls-1" x1="77.71" y1="6.77" x2="75.95" y2="8.49"/>
<line class="cls-1" x1="75.95" y1="8.49" x2="73.42" y2="8.49"/>
<line class="cls-1" x1="73.42" y1="8.49" x2="71.71" y2="6.77"/>
<line class="cls-1" x1="73.46" y1="6.82" x2="73.46" y2="4.16"/>
<line class="cls-1" x1="73.46" y1="4.16" x2="75.95" y2="4.16"/>
<line class="cls-1" x1="75.95" y1="4.16" x2="75.99" y2="6.77"/>
<line class="cls-1" x1="75.99" y1="6.77" x2="73.46" y2="6.82"/></g><g id="p">
<line class="cls-1" x1="71.71" y1="8.1" x2="71.71" y2="1.21"/>
<line class="cls-1" x1="71.71" y1="1.21" x2="73.46" y2="1.21"/>
<line class="cls-1" x1="73.46" y1="1.21" x2="73.46" y2="2.88"/>
<line class="cls-1" x1="73.46" y1="2.88" x2="75.13" y2="1.21"/>
<line class="cls-1" x1="75.13" y1="1.21" x2="75.99" y2="1.21"/>
<line class="cls-1" x1="75.99" y1="1.21" x2="77.71" y2="2.93"/>
<line class="cls-1" x1="77.71" y1="2.93" x2="77.71" y2="5.5"/>
<line class="cls-1" x1="77.71" y1="5.5" x2="75.99" y2="7.21"/>
<line class="cls-1" x1="75.99" y1="7.21" x2="75.25" y2="7.21"/>
<line class="cls-1" x1="75.25" y1="7.21" x2="73.58" y2="5.54"/>
<line class="cls-1" x1="73.58" y1="5.54" x2="75.95" y2="5.54"/>
<line class="cls-1" x1="75.95" y1="5.54" x2="75.95" y2="2.88"/>
<line class="cls-1" x1="75.95" y1="2.88" x2="73.46" y2="2.88"/>
<line class="cls-1" x1="73.46" y1="2.88" x2="73.46" y2="9.76"/>
<line class="cls-1" x1="73.46" y1="9.76" x2="71.71" y2="8.1"/></g><g id="q">
<line class="cls-1" x1="71.71" y1="5.51" x2="71.71" y2="2.93"/>
<line class="cls-1" x1="71.71" y1="2.93" x2="73.18" y2="1.46"/>
<line class="cls-1" x1="73.18" y1="1.46" x2="73.42" y2="1.21"/>
<line class="cls-1" x1="73.42" y1="1.21" x2="74.28" y2="1.21"/>
<line class="cls-1" x1="74.28" y1="1.21" x2="75.95" y2="2.88"/>
<line class="cls-1" x1="75.95" y1="2.88" x2="75.95" y2="1.21"/>
<line class="cls-1" x1="75.95" y1="1.21" x2="77.7" y2="1.21"/>
<line class="cls-1" x1="77.7" y1="1.21" x2="77.71" y2="9.76"/>
<line class="cls-1" x1="77.71" y1="9.76" x2="75.95" y2="8.1"/>
<line class="cls-1" x1="75.95" y1="8.1" x2="75.95" y2="2.88"/>
<line class="cls-1" x1="75.95" y1="2.88" x2="73.46" y2="2.88"/>
<line class="cls-1" x1="73.46" y1="2.88" x2="73.46" y2="5.54"/>
<line class="cls-1" x1="73.46" y1="5.54" x2="75.83" y2="5.54"/>
<line class="cls-1" x1="75.83" y1="5.54" x2="74.16" y2="7.21"/>
<line class="cls-1" x1="74.16" y1="7.21" x2="73.42" y2="7.21"/>
<line class="cls-1" x1="73.42" y1="7.21" x2="71.71" y2="5.51"/></g><g id="r">
<line class="cls-1" x1="72.91" y1="6.75" x2="72.91" y2="2.47"/>
<line class="cls-1" x1="72.91" y1="2.47" x2="74.66" y2="2.47"/>
<line class="cls-1" x1="74.66" y1="2.47" x2="74.66" y2="4.14"/>
<line class="cls-1" x1="74.66" y1="4.14" x2="76.32" y2="2.47"/>
<line class="cls-1" x1="76.32" y1="2.47" x2="76.52" y2="2.47"/>
<line class="cls-1" x1="76.52" y1="2.47" x2="76.52" y2="4.14"/>
<line class="cls-1" x1="76.52" y1="4.14" x2="74.66" y2="4.14"/>
<line class="cls-1" x1="74.66" y1="4.14" x2="74.66" y2="8.51"/>
<line class="cls-1" x1="74.66" y1="8.51" x2="72.91" y2="6.75"/></g><g id="s">
<line class="cls-1" x1="89.99" y1="7.59" x2="89.99" y2="5.18"/>
<line class="cls-1" x1="89.99" y1="5.18" x2="92.67" y2="2.49"/>
<line class="cls-1" x1="92.67" y1="2.49" x2="93.46" y2="2.49"/>
<line class="cls-1" x1="93.46" y1="2.49" x2="95.18" y2="4.21"/>
<line class="cls-1" x1="95.18" y1="4.21" x2="95.18" y2="6.78"/>
<line class="cls-1" x1="95.18" y1="6.78" x2="93.46" y2="8.49"/>
<line class="cls-1" x1="93.46" y1="8.49" x2="90.89" y2="8.49"/>
<line class="cls-1" x1="90.89" y1="8.49" x2="92.55" y2="6.82"/>
<line class="cls-1" x1="92.55" y1="6.82" x2="93.42" y2="6.82"/>
<line class="cls-1" x1="93.42" y1="6.82" x2="93.42" y2="4.16"/>
<line class="cls-1" x1="93.42" y1="4.16" x2="89.99" y2="7.59"/></g><g id="t">
<line class="cls-1" x1="89.9" y1="3.75" x2="91.72" y2="3.75"/>
<line class="cls-1" x1="91.72" y1="3.75" x2="91.72" y2="1.2"/>
<line class="cls-1" x1="91.72" y1="1.2" x2="93.47" y2="1.2"/>
<line class="cls-1" x1="93.47" y1="1.2" x2="93.47" y2="3.75"/>
<line class="cls-1" x1="93.47" y1="3.75" x2="93.6" y2="3.75"/>
<line class="cls-1" x1="93.6" y1="3.75" x2="95.27" y2="5.42"/>
<line class="cls-1" x1="95.27" y1="5.42" x2="93.47" y2="5.42"/>
<line class="cls-1" x1="93.47" y1="5.42" x2="93.47" y2="9.78"/>
<line class="cls-1" x1="93.47" y1="9.78" x2="91.72" y2="8.03"/>
<line class="cls-1" x1="91.72" y1="8.03" x2="91.72" y2="5.42"/>
<line class="cls-1" x1="91.72" y1="5.42" x2="91.56" y2="5.42"/>
<line class="cls-1" x1="91.56" y1="5.42" x2="89.9" y2="3.75"/></g><g id="u">
<line class="cls-1" x1="89.89" y1="6.77" x2="89.89" y2="2.49"/>
<line class="cls-1" x1="89.89" y1="2.49" x2="91.65" y2="2.49"/>
<line class="cls-1" x1="91.65" y1="2.49" x2="91.65" y2="6.82"/>
<line class="cls-1" x1="91.65" y1="6.82" x2="93.51" y2="6.82"/>
<line class="cls-1" x1="93.51" y1="6.82" x2="93.51" y2="2.44"/>
<line class="cls-1" x1="93.51" y1="2.44" x2="95.28" y2="4.21"/>
<line class="cls-1" x1="95.28" y1="4.21" x2="95.28" y2="8.54"/>
<line class="cls-1" x1="95.28" y1="8.54" x2="93.51" y2="6.82"/>
<line class="cls-1" x1="93.51" y1="6.82" x2="91.85" y2="8.49"/>
<line class="cls-1" x1="91.85" y1="8.49" x2="91.61" y2="8.49"/>
<line class="cls-1" x1="91.61" y1="8.49" x2="89.89" y2="6.77"/></g><g id="v">
<line class="cls-1" x1="125.6" y1="5.97" x2="125.6" y2="4.18"/>
<line class="cls-1" x1="125.6" y1="4.18" x2="127.37" y2="2.47"/>
<line class="cls-1" x1="127.37" y1="2.47" x2="127.37" y2="6.84"/>
<line class="cls-1" x1="127.37" y1="6.84" x2="129.23" y2="6.84"/>
<line class="cls-1" x1="129.23" y1="6.84" x2="129.23" y2="2.51"/>
<line class="cls-1" x1="129.23" y1="2.51" x2="130.99" y2="2.51"/>
<line class="cls-1" x1="130.99" y1="2.51" x2="130.99" y2="5.96"/>
<line class="cls-1" x1="130.99" y1="5.96" x2="128.4" y2="8.51"/>
<line class="cls-1" x1="128.4" y1="8.51" x2="128.16" y2="8.51"/>
<line class="cls-1" x1="128.16" y1="8.51" x2="125.6" y2="5.97"/></g><g id="w">
<line class="cls-1" x1="123.8" y1="5.96" x2="123.8" y2="2.51"/>
<line class="cls-1" x1="123.8" y1="2.51" x2="125.56" y2="2.51"/>
<line class="cls-1" x1="125.56" y1="2.51" x2="125.56" y2="6.84"/>
<line class="cls-1" x1="125.56" y1="6.84" x2="127.42" y2="6.84"/>
<line class="cls-1" x1="127.42" y1="6.84" x2="127.42" y2="2.47"/>
<line class="cls-1" x1="127.42" y1="2.47" x2="129.17" y2="4.18"/>
<line class="cls-1" x1="129.17" y1="4.18" x2="129.17" y2="6.84"/>
<line class="cls-1" x1="129.17" y1="6.84" x2="131.03" y2="6.84"/>
<line class="cls-1" x1="131.03" y1="6.84" x2="131.03" y2="2.47"/>
<line class="cls-1" x1="131.03" y1="2.47" x2="132.79" y2="4.22"/>
<line class="cls-1" x1="132.79" y1="4.22" x2="132.79" y2="5.96"/>
<line class="cls-1" x1="132.79" y1="5.96" x2="130.24" y2="8.51"/>
<line class="cls-1" x1="130.24" y1="8.51" x2="130" y2="8.51"/>
<line class="cls-1" x1="130" y1="8.51" x2="128.31" y2="6.84"/>
<line class="cls-1" x1="128.31" y1="6.84" x2="126.63" y2="8.51"/>
<line class="cls-1" x1="126.63" y1="8.51" x2="126.39" y2="8.51"/>
<line class="cls-1" x1="126.39" y1="8.51" x2="123.8" y2="5.96"/></g><g id="x">
<line class="cls-1" x1="124.95" y1="6.77" x2="126.23" y2="5.49"/>
<line class="cls-1" x1="126.23" y1="5.49" x2="124.95" y2="4.21"/>
<line class="cls-1" x1="124.95" y1="4.21" x2="126.15" y2="2.99"/>
<line class="cls-1" x1="126.15" y1="2.99" x2="127.44" y2="4.29"/>
<line class="cls-1" x1="127.44" y1="4.29" x2="129.23" y2="2.49"/>
<line class="cls-1" x1="129.23" y1="2.49" x2="131.64" y2="2.49"/>
<line class="cls-1" x1="131.64" y1="2.49" x2="128.64" y2="5.49"/>
<line class="cls-1" x1="128.64" y1="5.49" x2="131.64" y2="8.49"/>
<line class="cls-1" x1="131.64" y1="8.49" x2="129.23" y2="8.49"/>
<line class="cls-1" x1="129.23" y1="8.49" x2="127.44" y2="6.7"/>
<line class="cls-1" x1="127.44" y1="6.7" x2="126.15" y2="7.98"/>
<line class="cls-1" x1="126.15" y1="7.98" x2="124.95" y2="6.77"/></g><g id="y">
<line class="cls-1" x1="125.6" y1="5.52" x2="125.6" y2="2.95"/>
<line class="cls-1" x1="125.6" y1="2.95" x2="127.36" y2="1.19"/>
<line class="cls-1" x1="127.36" y1="1.19" x2="127.37" y2="5.57"/>
<line class="cls-1" x1="127.37" y1="5.57" x2="129.23" y2="5.57"/>
<line class="cls-1" x1="129.23" y1="5.57" x2="129.23" y2="1.24"/>
<line class="cls-1" x1="130.99" y1="1.24" x2="130.99" y2="8.03"/>
<line class="cls-1" x1="130.99" y1="8.03" x2="129.23" y2="9.79"/>
<line class="cls-1" x1="129.23" y1="9.79" x2="127.47" y2="8.03"/>
<line class="cls-1" x1="127.47" y1="8.03" x2="129.23" y2="8.03"/>
<line class="cls-1" x1="129.23" y1="8.03" x2="129.23" y2="5.57"/>
<line class="cls-1" x1="129.23" y1="5.57" x2="127.56" y2="7.23"/>
<line class="cls-1" x1="127.56" y1="7.23" x2="127.32" y2="7.23"/>
<line class="cls-1" x1="127.32" y1="7.23" x2="125.6" y2="5.52"/></g><g id="z">
<line class="cls-1" x1="125.4" y1="4.1" x2="127.01" y2="2.49"/>
<line class="cls-1" x1="127.01" y1="2.49" x2="129.59" y2="2.49"/>
<line class="cls-1" x1="129.59" y1="2.49" x2="131.02" y2="3.93"/>
<line class="cls-1" x1="131.02" y1="3.93" x2="128.07" y2="6.88"/>
<line class="cls-1" x1="128.07" y1="6.88" x2="131.19" y2="6.88"/>
<line class="cls-1" x1="131.19" y1="6.88" x2="129.59" y2="8.49"/>
<line class="cls-1" x1="129.59" y1="8.49" x2="127.01" y2="8.49"/>
<line class="cls-1" x1="127.01" y1="8.49" x2="125.59" y2="7.06"/>
<line class="cls-1" x1="125.59" y1="7.06" x2="128.55" y2="4.1"/>
<line class="cls-1" x1="128.55" y1="4.1" x2="125.4" y2="4.1"/></g></svg>
