<svg xmlns="http://www.w3.org/2000/svg" viewBox="0 0 9 11.26"><defs><style>.cls-1{fill:#231f20;}</style></defs><g id="a"><line class="cls-1" x1="1.5" y1="6.91" x2="1.5" y2="4.34"/><line class="cls-1" x1="1.5" y1="4.34" x2="3.21" y2="2.63"/><line class="cls-1" x1="3.21" y1="2.63" x2="5.79" y2="2.63"/><line class="cls-1" x1="5.79" y1="2.63" x2="7.5" y2="4.34"/><line class="cls-1" x1="7.5" y1="4.34" x2="7.5" y2="8.67"/><line class="cls-1" x1="7.5" y1="8.67" x2="5.74" y2="6.96"/><line class="cls-1" x1="5.74" y1="6.96" x2="5.74" y2="4.29"/><line class="cls-1" x1="5.74" y1="4.29" x2="3.26" y2="4.29"/><line class="cls-1" x1="3.26" y1="4.29" x2="3.26" y2="6.96"/><line class="cls-1" x1="3.26" y1="6.96" x2="5.62" y2="6.96"/><line class="cls-1" x1="5.62" y1="6.96" x2="3.95" y2="8.62"/><line class="cls-1" x1="3.95" y1="8.62" x2="3.21" y2="8.62"/><line class="cls-1" x1="3.21" y1="8.62" x2="1.5" y2="6.91"/></g><g id="b"><line class="cls-1" x1="1.44" y1="6.84" x2="1.44"/><line class="cls-1" x1="1.44" x2="3.19"/><line class="cls-1" x1="3.19" x2="3.19" y2="8.59"/><line class="cls-1" x1="3.19" y1="8.59" x2="1.44" y2="6.84"/><line class="cls-1" x1="3.19" y1="4.22" x2="4.86" y2="2.55"/><line class="cls-1" x1="4.86" y1="2.55" x2="5.72" y2="2.55"/><line class="cls-1" x1="5.72" y1="2.55" x2="7.44" y2="4.27"/><line class="cls-1" x1="7.44" y1="4.27" x2="7.44" y2="6.84"/><line class="cls-1" x1="7.44" y1="6.84" x2="5.72" y2="8.55"/><line class="cls-1" x1="5.72" y1="8.55" x2="4.98" y2="8.55"/><line class="cls-1" x1="4.98" y1="8.55" x2="3.31" y2="6.88"/><line class="cls-1" x1="3.31" y1="6.88" x2="5.67" y2="6.88"/><line class="cls-1" x1="5.67" y1="6.88" x2="5.67" y2="4.22"/><line class="cls-1" x1="5.67" y1="4.22" x2="3.19" y2="4.22"/></g><g id="c"><line class="cls-1" x1="1.7" y1="6.93" x2="1.7" y2="4.37"/><line class="cls-1" x1="1.7" y1="4.37" x2="3.4" y2="2.65"/><line class="cls-1" x1="3.4" y1="2.65" x2="5.63" y2="2.65"/><line class="cls-1" x1="5.63" y1="2.65" x2="7.31" y2="4.32"/><line class="cls-1" x1="7.31" y1="4.32" x2="3.45" y2="4.32"/><line class="cls-1" x1="3.45" y1="4.32" x2="3.45" y2="6.98"/><line class="cls-1" x1="3.45" y1="6.98" x2="7.18" y2="6.98"/><line class="cls-1" x1="7.18" y1="6.98" x2="5.51" y2="8.65"/><line class="cls-1" x1="5.51" y1="8.65" x2="3.4" y2="8.65"/><line class="cls-1" x1="3.4" y1="8.65" x2="1.7" y2="6.93"/></g><g id="d"><line class="cls-1" x1="1.51" y1="7.04" x2="1.51" y2="4.47"/><line class="cls-1" x1="1.51" y1="4.47" x2="3.23" y2="2.76"/><line class="cls-1" x1="3.23" y1="2.76" x2="4.08" y2="2.76"/><line class="cls-1" x1="4.08" y1="2.76" x2="5.74" y2="4.43"/><line class="cls-1" x1="5.74" y1="4.43" x2="3.26" y2="4.43"/><line class="cls-1" x1="3.26" y1="4.43" x2="3.26" y2="7.09"/><line class="cls-1" x1="3.26" y1="7.09" x2="5.62" y2="7.09"/><line class="cls-1" x1="5.62" y1="7.09" x2="3.96" y2="8.76"/><line class="cls-1" x1="3.96" y1="8.76" x2="3.23" y2="8.76"/><line class="cls-1" x1="3.23" y1="8.76" x2="1.51" y2="7.04"/><line class="cls-1" x1="5.74" y1="7.04" x2="5.74" y2="0.21"/><line class="cls-1" x1="5.74" y1="0.21" x2="7.5" y2="0.21"/><line class="cls-1" x1="7.5" y1="0.21" x2="7.5" y2="8.79"/><line class="cls-1" x1="7.5" y1="8.79" x2="5.74" y2="7.04"/></g><g id="e"><line class="cls-1" x1="1.56" y1="6.93" x2="1.56" y2="4.37"/><line class="cls-1" x1="1.56" y1="4.37" x2="3.26" y2="2.65"/><line class="cls-1" x1="3.26" y1="2.65" x2="5.74" y2="2.65"/><line class="cls-1" x1="5.74" y1="2.65" x2="7.45" y2="4.37"/><line class="cls-1" x1="7.45" y1="4.37" x2="7.45" y2="5.65"/><line class="cls-1" x1="7.45" y1="5.65" x2="5.91" y2="7.2"/><line class="cls-1" x1="5.91" y1="7.2" x2="4.37" y2="5.65"/><line class="cls-1" x1="4.37" y1="5.65" x2="5.7" y2="5.65"/><line class="cls-1" x1="5.7" y1="5.65" x2="5.7" y2="4.32"/><line class="cls-1" x1="5.7" y1="4.32" x2="3.31" y2="4.32"/><line class="cls-1" x1="3.31" y1="4.32" x2="3.31" y2="6.98"/><line class="cls-1" x1="3.31" y1="6.98" x2="4.46" y2="6.98"/><line class="cls-1" x1="4.46" y1="6.98" x2="6.13" y2="8.65"/><line class="cls-1" x1="6.13" y1="8.65" x2="3.26" y2="8.65"/><line class="cls-1" x1="3.26" y1="8.65" x2="1.56" y2="6.93"/></g><g id="f"><line class="cls-1" x1="2.74" y1="8.62" x2="2.74" y2="1.82"/><line class="cls-1" x1="2.74" y1="1.82" x2="4.5" y2="0.07"/><line class="cls-1" x1="4.5" y1="0.07" x2="6.25" y2="0.07"/><line class="cls-1" x1="6.25" y1="0.07" x2="6.25" y2="1.82"/><line class="cls-1" x1="6.25" y1="1.82" x2="4.5" y2="0.07"/><line class="cls-1" x1="4.5" y1="0.07" x2="4.5" y2="2.62"/><line class="cls-1" x1="4.5" y1="2.62" x2="6.25" y2="2.62"/><line class="cls-1" x1="6.25" y1="2.62" x2="4.5" y2="4.37"/><line class="cls-1" x1="4.5" y1="4.37" x2="4.5" y2="8.62"/><line class="cls-1" x1="4.5" y1="8.62" x2="2.74" y2="8.62"/></g><g id="g"><line class="cls-1" x1="1.5" y1="6.91" x2="1.5" y2="4.35"/><line class="cls-1" x1="1.5" y1="4.35" x2="3.21" y2="2.63"/><line class="cls-1" x1="3.21" y1="2.63" x2="5.78" y2="2.63"/><line class="cls-1" x1="5.78" y1="2.63" x2="7.49" y2="4.35"/><line class="cls-1" x1="7.49" y1="4.35" x2="7.49" y2="9.43"/><line class="cls-1" x1="7.49" y1="9.43" x2="5.73" y2="11.18"/><line class="cls-1" x1="5.73" y1="11.18" x2="3.98" y2="9.43"/><line class="cls-1" x1="3.98" y1="9.43" x2="5.73" y2="9.43"/><line class="cls-1" x1="5.73" y1="9.43" x2="5.73" y2="4.3"/><line class="cls-1" x1="5.73" y1="4.3" x2="3.25" y2="4.3"/><line class="cls-1" x1="3.25" y1="4.3" x2="3.25" y2="6.96"/><line class="cls-1" x1="3.25" y1="6.96" x2="5.61" y2="6.96"/><line class="cls-1" x1="5.61" y1="6.96" x2="3.94" y2="8.63"/><line class="cls-1" x1="3.94" y1="8.63" x2="3.21" y2="8.63"/><line class="cls-1" x1="3.21" y1="8.63" x2="1.5" y2="6.91"/></g><g id="h"><line class="cls-1" x1="1.81" y1="0.07" x2="1.81" y2="6.91"/><line class="cls-1" x1="1.81" y1="6.91" x2="3.57" y2="8.67"/><line class="cls-1" x1="3.57" y1="8.67" x2="3.57" y2="0.07"/><line class="cls-1" x1="3.57" y1="0.07" x2="1.81" y2="0.07"/><line class="cls-1" x1="3.57" y1="4.29" x2="5.24" y2="2.63"/><line class="cls-1" x1="5.24" y1="2.63" x2="5.48" y2="2.63"/><line class="cls-1" x1="5.48" y1="2.63" x2="7.18" y2="4.34"/><line class="cls-1" x1="7.18" y1="4.34" x2="7.18" y2="8.62"/><line class="cls-1" x1="7.18" y1="8.62" x2="5.43" y2="8.62"/><line class="cls-1" x1="5.43" y1="8.62" x2="5.43" y2="4.29"/><line class="cls-1" x1="5.43" y1="4.29" x2="3.57" y2="4.29"/></g><g id="i"><line class="cls-1" x1="3.62" y1="6.92" x2="3.62" y2="2.64"/><line class="cls-1" x1="3.62" y1="2.64" x2="5.37" y2="2.64"/><line class="cls-1" x1="5.37" y1="2.64" x2="5.37" y2="8.67"/><line class="cls-1" x1="5.37" y1="8.67" x2="3.62" y2="6.92"/><line class="cls-1" x1="3.62" y1="0.08" x2="5.37" y2="0.08"/><line class="cls-1" x1="5.37" y1="0.08" x2="5.37" y2="1.84"/><line class="cls-1" x1="5.37" y1="1.84" x2="3.62" y2="0.08"/></g><g id="j"><line class="cls-1" x1="4.51" y1="2.63" x2="6.27" y2="2.63"/><line class="cls-1" x1="6.27" y1="2.63" x2="6.26" y2="9.43"/><line class="cls-1" x1="6.26" y1="9.43" x2="4.51" y2="11.18"/><line class="cls-1" x1="4.51" y1="11.18" x2="2.75" y2="9.43"/><line class="cls-1" x1="2.75" y1="9.43" x2="4.51" y2="9.43"/><line class="cls-1" x1="4.51" y1="9.43" x2="4.51" y2="2.63"/><line class="cls-1" x1="4.51" y1="0.07" x2="6.27" y2="0.07"/><line class="cls-1" x1="6.27" y1="0.07" x2="6.27" y2="1.83"/><line class="cls-1" x1="6.27" y1="1.83" x2="4.51" y2="0.07"/></g><g id="k"><line class="cls-1" x1="1.46" y1="0.04" x2="3.22" y2="0.04"/><line class="cls-1" x1="3.22" y1="0.04" x2="3.22" y2="2.6"/><line class="cls-1" x1="3.22" y1="2.6" x2="4.89" y2="2.6"/><line class="cls-1" x1="4.89" y1="2.6" x2="3.22" y2="4.26"/><line class="cls-1" x1="3.22" y1="4.26" x2="7.54" y2="8.59"/><line class="cls-1" x1="7.54" y1="8.59" x2="5.19" y2="8.59"/><line class="cls-1" x1="5.19" y1="8.59" x2="3.22" y2="6.63"/><line class="cls-1" x1="3.22" y1="6.63" x2="3.22" y2="8.64"/><line class="cls-1" x1="3.22" y1="8.64" x2="1.46" y2="6.88"/><line class="cls-1" x1="1.46" y1="6.88" x2="1.46" y2="0.04"/></g><g id="l"><line class="cls-1" x1="3.49" y1="7" x2="3.49" y2="0.16"/><line class="cls-1" x1="3.49" y1="0.16" x2="5.25" y2="0.16"/><line class="cls-1" x1="5.25" y1="0.16" x2="5.25" y2="8.75"/><line class="cls-1" x1="5.25" y1="8.75" x2="3.49" y2="7"/></g><g id="m"><line class="cls-1" y1="8.61" y2="2.57"/><line class="cls-1" y1="2.57" x2="1.75" y2="4.29"/><line class="cls-1" x1="1.75" y1="4.29" x2="3.43" y2="2.62"/><line class="cls-1" x1="3.43" y1="2.62" x2="3.66" y2="2.62"/><line class="cls-1" x1="3.66" y1="2.62" x2="5.37" y2="4.29"/><line class="cls-1" x1="5.37" y1="4.29" x2="7.04" y2="2.62"/><line class="cls-1" x1="7.04" y1="2.62" x2="7.28" y2="2.62"/><line class="cls-1" x1="7.28" y1="2.62" x2="8.99" y2="4.33"/><line class="cls-1" x1="8.99" y1="4.33" x2="8.99" y2="8.65"/><line class="cls-1" x1="8.99" y1="8.65" x2="7.24" y2="6.95"/><line class="cls-1" x1="7.24" y1="6.95" x2="7.24" y2="4.29"/><line class="cls-1" x1="7.24" y1="4.29" x2="5.37" y2="4.29"/><line class="cls-1" x1="5.37" y1="4.29" x2="5.37" y2="8.61"/><line class="cls-1" x1="5.37" y1="8.61" x2="3.62" y2="8.61"/><line class="cls-1" x1="3.62" y1="8.61" x2="3.62" y2="4.29"/><line class="cls-1" x1="3.62" y1="4.29" x2="1.75" y2="4.29"/><line class="cls-1" x1="1.75" y1="4.29" x2="1.75" y2="8.61"/><line class="cls-1" x1="1.75" y1="8.61" y2="8.61"/></g><g id="n"><line class="cls-1" x1="2.09" y1="8.55" x2="2.09" y2="2.51"/><line class="cls-1" x1="2.09" y1="2.51" x2="3.86" y2="4.22"/><line class="cls-1" x1="3.86" y1="4.22" x2="5.52" y2="2.56"/><line class="cls-1" x1="5.6" y1="2.56" x2="5.76" y2="2.56"/><line class="cls-1" x1="5.76" y1="2.56" x2="7.48" y2="4.27"/><line class="cls-1" x1="7.48" y1="4.27" x2="7.48" y2="8.6"/><line class="cls-1" x1="7.48" y1="8.67" x2="5.71" y2="6.89"/><line class="cls-1" x1="5.71" y1="6.89" x2="5.71" y2="4.22"/><line class="cls-1" x1="5.71" y1="4.22" x2="3.86" y2="4.22"/><line class="cls-1" x1="3.86" y1="4.22" x2="3.86" y2="8.55"/><line class="cls-1" x1="3.86" y1="8.55" x2="2.09" y2="8.55"/></g><g id="o"><line class="cls-1" x1="1.51" y1="6.93" x2="1.51" y2="4.37"/><line class="cls-1" x1="1.51" y1="4.37" x2="3.21" y2="2.65"/><line class="cls-1" x1="3.21" y1="2.65" x2="5.79" y2="2.65"/><line class="cls-1" x1="5.79" y1="2.65" x2="7.5" y2="4.37"/><line class="cls-1" x1="7.5" y1="4.37" x2="7.5" y2="6.93"/><line class="cls-1" x1="7.5" y1="6.93" x2="5.74" y2="8.65"/><line class="cls-1" x1="5.74" y1="8.65" x2="3.21" y2="8.65"/><line class="cls-1" x1="3.21" y1="8.65" x2="1.51" y2="6.93"/><line class="cls-1" x1="3.26" y1="6.98" x2="3.26" y2="4.32"/><line class="cls-1" x1="3.26" y1="4.32" x2="5.74" y2="4.32"/><line class="cls-1" x1="5.74" y1="4.32" x2="5.79" y2="6.93"/><line class="cls-1" x1="5.79" y1="6.93" x2="3.26" y2="6.98"/></g><g id="p"><line class="cls-1" x1="1.5" y1="9.56" x2="1.5" y2="2.68"/><line class="cls-1" x1="1.5" y1="2.68" x2="3.25" y2="2.68"/><line class="cls-1" x1="3.25" y1="2.68" x2="3.25" y2="4.35"/><line class="cls-1" x1="3.25" y1="4.35" x2="4.92" y2="2.68"/><line class="cls-1" x1="4.92" y1="2.68" x2="5.78" y2="2.68"/><line class="cls-1" x1="5.78" y1="2.68" x2="7.5" y2="4.4"/><line class="cls-1" x1="7.5" y1="4.4" x2="7.5" y2="6.96"/><line class="cls-1" x1="7.5" y1="6.96" x2="5.78" y2="8.68"/><line class="cls-1" x1="5.78" y1="8.68" x2="5.04" y2="8.68"/><line class="cls-1" x1="5.04" y1="8.68" x2="3.37" y2="7.01"/><line class="cls-1" x1="3.37" y1="7.01" x2="5.73" y2="7.01"/><line class="cls-1" x1="5.73" y1="7.01" x2="5.73" y2="4.35"/><line class="cls-1" x1="5.73" y1="4.35" x2="3.25" y2="4.35"/><line class="cls-1" x1="3.25" y1="4.35" x2="3.25" y2="11.23"/><line class="cls-1" x1="3.25" y1="11.23" x2="1.5" y2="9.56"/></g><g id="q"><line class="cls-1" x1="1.5" y1="6.84" x2="1.5" y2="4.26"/><line class="cls-1" x1="1.5" y1="4.26" x2="2.96" y2="2.79"/><line class="cls-1" x1="2.96" y1="2.79" x2="3.2" y2="2.55"/><line class="cls-1" x1="3.2" y1="2.55" x2="4.07" y2="2.55"/><line class="cls-1" x1="4.07" y1="2.55" x2="5.73" y2="4.22"/><line class="cls-1" x1="5.73" y1="4.22" x2="5.73" y2="2.55"/><line class="cls-1" x1="5.73" y1="2.55" x2="7.48" y2="2.55"/><line class="cls-1" x1="7.48" y1="2.55" x2="7.5" y2="11.1"/><line class="cls-1" x1="7.5" y1="11.1" x2="5.73" y2="9.43"/><line class="cls-1" x1="5.73" y1="9.43" x2="5.73" y2="4.22"/><line class="cls-1" x1="5.73" y1="4.22" x2="3.25" y2="4.22"/><line class="cls-1" x1="3.25" y1="4.22" x2="3.25" y2="6.88"/><line class="cls-1" x1="3.25" y1="6.88" x2="5.61" y2="6.88"/><line class="cls-1" x1="5.61" y1="6.88" x2="3.95" y2="8.54"/><line class="cls-1" x1="3.95" y1="8.54" x2="3.2" y2="8.54"/><line class="cls-1" x1="3.2" y1="8.54" x2="1.5" y2="6.84"/></g><g id="r"><line class="cls-1" x1="2.7" y1="6.91" x2="2.7" y2="2.63"/><line class="cls-1" x1="2.7" y1="2.63" x2="4.45" y2="2.63"/><line class="cls-1" x1="4.45" y1="2.63" x2="4.45" y2="4.3"/><line class="cls-1" x1="4.45" y1="4.3" x2="6.12" y2="2.63"/><line class="cls-1" x1="6.12" y1="2.63" x2="6.31" y2="2.63"/><line class="cls-1" x1="6.31" y1="2.63" x2="6.31" y2="4.3"/><line class="cls-1" x1="6.31" y1="4.3" x2="4.45" y2="4.3"/><line class="cls-1" x1="4.45" y1="4.3" x2="4.45" y2="8.67"/><line class="cls-1" x1="4.45" y1="8.67" x2="2.7" y2="6.91"/></g><g id="s"><line class="cls-1" x1="2.19" y1="7.75" x2="2.19" y2="5.34"/><line class="cls-1" x1="2.19" y1="5.34" x2="4.88" y2="2.66"/><line class="cls-1" x1="4.88" y1="2.66" x2="5.67" y2="2.66"/><line class="cls-1" x1="5.67" y1="2.66" x2="7.38" y2="4.37"/><line class="cls-1" x1="7.38" y1="4.37" x2="7.38" y2="6.95"/><line class="cls-1" x1="7.38" y1="6.95" x2="5.67" y2="8.65"/><line class="cls-1" x1="5.67" y1="8.65" x2="3.09" y2="8.65"/><line class="cls-1" x1="3.09" y1="8.65" x2="4.76" y2="6.99"/><line class="cls-1" x1="4.76" y1="6.99" x2="5.62" y2="6.99"/><line class="cls-1" x1="5.62" y1="6.99" x2="5.62" y2="4.32"/><line class="cls-1" x1="5.62" y1="4.32" x2="2.19" y2="7.75"/></g><g id="t"><line class="cls-1" x1="1.75" y1="2.64" x2="3.57" y2="2.64"/><line class="cls-1" x1="3.57" y1="2.64" x2="3.57" y2="0.08"/><line class="cls-1" x1="3.57" y1="0.08" x2="5.32" y2="0.08"/><line class="cls-1" x1="5.32" y1="0.08" x2="5.32" y2="2.64"/><line class="cls-1" x1="5.32" y1="2.64" x2="5.46" y2="2.64"/><line class="cls-1" x1="5.46" y1="2.64" x2="7.12" y2="4.31"/><line class="cls-1" x1="7.12" y1="4.31" x2="5.32" y2="4.31"/><line class="cls-1" x1="5.32" y1="4.31" x2="5.32" y2="8.67"/><line class="cls-1" x1="5.32" y1="8.67" x2="3.57" y2="6.92"/><line class="cls-1" x1="3.57" y1="6.92" x2="3.57" y2="4.31"/><line class="cls-1" x1="3.57" y1="4.31" x2="3.42" y2="4.31"/><line class="cls-1" x1="3.42" y1="4.31" x2="1.75" y2="2.64"/></g><g id="u"><line class="cls-1" x1="2.12" y1="6.91" x2="2.12" y2="2.63"/><line class="cls-1" x1="2.12" y1="2.63" x2="3.88" y2="2.63"/><line class="cls-1" x1="3.88" y1="2.63" x2="3.88" y2="6.96"/><line class="cls-1" x1="3.88" y1="6.96" x2="5.74" y2="6.96"/><line class="cls-1" x1="5.74" y1="6.96" x2="5.74" y2="2.58"/><line class="cls-1" x1="5.74" y1="2.58" x2="7.5" y2="4.34"/><line class="cls-1" x1="7.5" y1="4.34" x2="7.5" y2="8.67"/><line class="cls-1" x1="7.5" y1="8.67" x2="5.74" y2="6.96"/><line class="cls-1" x1="5.74" y1="6.96" x2="4.07" y2="8.62"/><line class="cls-1" x1="4.07" y1="8.62" x2="3.83" y2="8.62"/><line class="cls-1" x1="3.83" y1="8.62" x2="2.12" y2="6.91"/></g><g id="v"><line class="cls-1" x1="1.81" y1="6.13" x2="1.81" y2="4.34"/><line class="cls-1" x1="1.81" y1="4.34" x2="3.57" y2="2.63"/><line class="cls-1" x1="3.57" y1="2.63" x2="3.57" y2="7"/><line class="cls-1" x1="3.57" y1="7" x2="5.43" y2="7"/><line class="cls-1" x1="5.43" y1="7" x2="5.43" y2="2.67"/><line class="cls-1" x1="5.43" y1="2.67" x2="7.2" y2="2.67"/><line class="cls-1" x1="7.2" y1="2.67" x2="7.2" y2="6.12"/><line class="cls-1" x1="7.2" y1="6.12" x2="4.61" y2="8.67"/><line class="cls-1" x1="4.61" y1="8.67" x2="4.37" y2="8.67"/><line class="cls-1" x1="4.37" y1="8.67" x2="1.81" y2="6.13"/></g><g id="w"><line class="cls-1" x1="0.01" y1="6.12" x2="0.01" y2="2.67"/><line class="cls-1" x1="0.01" y1="2.67" x2="1.77" y2="2.67"/><line class="cls-1" x1="1.77" y1="2.67" x2="1.77" y2="7"/><line class="cls-1" x1="1.77" y1="7" x2="3.63" y2="7"/><line class="cls-1" x1="3.63" y1="7" x2="3.63" y2="2.63"/><line class="cls-1" x1="3.63" y1="2.63" x2="5.38" y2="4.34"/><line class="cls-1" x1="5.38" y1="4.34" x2="5.38" y2="7"/><line class="cls-1" x1="5.38" y1="7" x2="7.24" y2="7"/><line class="cls-1" x1="7.24" y1="7" x2="7.24" y2="2.63"/><line class="cls-1" x1="7.24" y1="2.63" x2="9" y2="4.38"/><line class="cls-1" x1="9" y1="4.38" x2="9" y2="6.12"/><line class="cls-1" x1="9" y1="6.12" x2="6.45" y2="8.67"/><line class="cls-1" x1="6.45" y1="8.67" x2="6.21" y2="8.67"/><line class="cls-1" x1="6.21" y1="8.67" x2="4.52" y2="7"/><line class="cls-1" x1="4.52" y1="7" x2="2.84" y2="8.67"/><line class="cls-1" x1="2.84" y1="8.67" x2="2.6" y2="8.67"/><line class="cls-1" x1="2.6" y1="8.67" x2="0.01" y2="6.12"/></g><g id="x"><line class="cls-1" x1="1.16" y1="6.93" x2="2.44" y2="5.65"/><line class="cls-1" x1="2.44" y1="5.65" x2="1.16" y2="4.37"/><line class="cls-1" x1="1.16" y1="4.37" x2="2.36" y2="3.15"/><line class="cls-1" x1="2.36" y1="3.15" x2="3.65" y2="4.45"/><line class="cls-1" x1="3.65" y1="4.45" x2="5.44" y2="2.65"/><line class="cls-1" x1="5.44" y1="2.65" x2="7.85" y2="2.65"/><line class="cls-1" x1="7.85" y1="2.65" x2="4.85" y2="5.65"/><line class="cls-1" x1="4.85" y1="5.65" x2="7.85" y2="8.65"/><line class="cls-1" x1="7.85" y1="8.65" x2="5.44" y2="8.65"/><line class="cls-1" x1="5.44" y1="8.65" x2="3.65" y2="6.86"/><line class="cls-1" x1="3.65" y1="6.86" x2="2.36" y2="8.14"/><line class="cls-1" x1="2.36" y1="8.14" x2="1.16" y2="6.93"/></g><g id="y"><line class="cls-1" x1="1.81" y1="6.99" x2="1.81" y2="4.42"/><line class="cls-1" x1="1.81" y1="4.42" x2="3.56" y2="2.66"/><line class="cls-1" x1="3.56" y1="2.66" x2="3.57" y2="7.03"/><line class="cls-1" x1="3.57" y1="7.03" x2="5.43" y2="7.03"/><line class="cls-1" x1="5.43" y1="7.03" x2="5.43" y2="2.7"/><line class="cls-1" x1="7.2" y1="2.7" x2="7.2" y2="9.49"/><line class="cls-1" x1="7.2" y1="9.49" x2="5.43" y2="11.26"/><line class="cls-1" x1="5.43" y1="11.26" x2="3.68" y2="9.49"/><line class="cls-1" x1="3.68" y1="9.49" x2="5.43" y2="9.49"/><line class="cls-1" x1="5.43" y1="9.49" x2="5.43" y2="7.03"/><line class="cls-1" x1="5.43" y1="7.03" x2="3.77" y2="8.7"/><line class="cls-1" x1="3.77" y1="8.7" x2="3.53" y2="8.7"/><line class="cls-1" x1="3.53" y1="8.7" x2="1.81" y2="6.99"/></g><g id="z"><line class="cls-1" x1="1.61" y1="4.26" x2="3.21" y2="2.65"/><line class="cls-1" x1="3.21" y1="2.65" x2="5.79" y2="2.65"/><line class="cls-1" x1="5.79" y1="2.65" x2="7.23" y2="4.09"/><line class="cls-1" x1="7.23" y1="4.09" x2="4.28" y2="7.04"/><line class="cls-1" x1="4.28" y1="7.04" x2="7.4" y2="7.04"/><line class="cls-1" x1="7.4" y1="7.04" x2="5.79" y2="8.65"/><line class="cls-1" x1="5.79" y1="8.65" x2="3.21" y2="8.65"/><line class="cls-1" x1="3.21" y1="8.65" x2="1.8" y2="7.22"/><line class="cls-1" x1="1.8" y1="7.22" x2="4.76" y2="4.26"/><line class="cls-1" x1="4.76" y1="4.26" x2="1.61" y2="4.26"/></g></svg>