<svg xmlns="http://www.w3.org/2000/svg" viewBox="0 0 8.99 11.11"><defs><style>.cls-1{fill:#231f20;}</style></defs>
<g id="a">
<line class="cls-1" y1="4.28" y2="1.71"/>
<line class="cls-1" y1="1.71" x2="1.7"/>
<line class="cls-1" x1="1.7" x2="4.28"/>
<line class="cls-1" x1="4.28" x2="6" y2="1.71"/>
<line class="cls-1" x1="6" y1="1.71" x2="6" y2="6.04"/>
<line class="cls-1" x1="6" y1="6.04" x2="4.23" y2="4.33"/>
<line class="cls-1" x1="4.23" y1="4.33" x2="4.23" y2="1.67"/>
<line class="cls-1" x1="4.23" y1="1.67" x2="1.75" y2="1.67"/>
<line class="cls-1" x1="1.75" y1="1.67" x2="1.75" y2="4.33"/>
<line class="cls-1" x1="1.75" y1="4.33" x2="4.11" y2="4.33"/>
<line class="cls-1" x1="4.11" y1="4.33" x2="2.45" y2="6"/>
<line class="cls-1" x1="2.45" y1="6" x2="1.7" y2="6"/>
<line class="cls-1" x1="1.7" y1="6" y2="4.28"/></g><g id="b">
<line class="cls-1" y1="6.84"/>
<line class="cls-1" x2="1.75"/>
<line class="cls-1" x1="1.75" x2="1.75" y2="8.59"/>
<line class="cls-1" x1="1.75" y1="8.59" y2="6.84"/>
<line class="cls-1" x1="1.75" y1="4.22" x2="3.42" y2="2.55"/>
<line class="cls-1" x1="3.42" y1="2.55" x2="4.28" y2="2.55"/>
<line class="cls-1" x1="4.28" y1="2.55" x2="6" y2="4.27"/>
<line class="cls-1" x1="6" y1="4.27" x2="6" y2="6.84"/>
<line class="cls-1" x1="6" y1="6.84" x2="4.28" y2="8.55"/>
<line class="cls-1" x1="4.28" y1="8.55" x2="3.54" y2="8.55"/>
<line class="cls-1" x1="3.54" y1="8.55" x2="1.87" y2="6.88"/>
<line class="cls-1" x1="1.87" y1="6.88" x2="4.23" y2="6.88"/>
<line class="cls-1" x1="4.23" y1="6.88" x2="4.23" y2="4.22"/>
<line class="cls-1" x1="4.23" y1="4.22" x2="1.75" y2="4.22"/></g><g id="c">
<line class="cls-1" y1="4.28" y2="1.71"/>
<line class="cls-1" y1="1.71" x2="1.7"/>
<line class="cls-1" x1="1.7" x2="3.93"/>
<line class="cls-1" x1="3.93" x2="5.61" y2="1.67"/>
<line class="cls-1" x1="5.61" y1="1.67" x2="1.75" y2="1.67"/>
<line class="cls-1" x1="1.75" y1="1.67" x2="1.75" y2="4.33"/>
<line class="cls-1" x1="1.75" y1="4.33" x2="5.48" y2="4.33"/>
<line class="cls-1" x1="5.48" y1="4.33" x2="3.81" y2="6"/>
<line class="cls-1" x1="3.81" y1="6" x2="1.7" y2="6"/>
<line class="cls-1" x1="1.7" y1="6" y2="4.28"/></g><g id="d">
<line class="cls-1" y1="6.84" y2="4.27"/>
<line class="cls-1" y1="4.27" x2="1.71" y2="2.55"/>
<line class="cls-1" x1="1.71" y1="2.55" x2="2.57" y2="2.55"/>
<line class="cls-1" x1="2.57" y1="2.55" x2="4.23" y2="4.22"/>
<line class="cls-1" x1="4.23" y1="4.22" x2="1.75" y2="4.22"/>
<line class="cls-1" x1="1.75" y1="4.22" x2="1.75" y2="6.88"/>
<line class="cls-1" x1="1.75" y1="6.88" x2="4.11" y2="6.88"/>
<line class="cls-1" x1="4.11" y1="6.88" x2="2.45" y2="8.55"/>
<line class="cls-1" x1="2.45" y1="8.55" x2="1.71" y2="8.55"/>
<line class="cls-1" x1="1.71" y1="8.55" y2="6.84"/>
<line class="cls-1" x1="4.23" y1="6.84" x2="4.23"/>
<line class="cls-1" x1="4.23" x2="5.98"/>
<line class="cls-1" x1="5.98" x2="5.98" y2="8.59"/>
<line class="cls-1" x1="5.98" y1="8.59" x2="4.23" y2="6.84"/></g><g id="e">
<line class="cls-1" y1="4.28" y2="1.71"/>
<line class="cls-1" y1="1.71" x2="1.7"/>
<line class="cls-1" x1="1.7" x2="4.19"/>
<line class="cls-1" x1="4.19" x2="5.89" y2="1.71"/>
<line class="cls-1" x1="5.89" y1="1.71" x2="5.89" y2="3"/>
<line class="cls-1" x1="5.89" y1="3" x2="4.35" y2="4.55"/>
<line class="cls-1" x1="4.35" y1="4.55" x2="2.81" y2="3"/>
<line class="cls-1" x1="2.81" y1="3" x2="4.14" y2="3"/>
<line class="cls-1" x1="4.14" y1="3" x2="4.14" y2="1.67"/>
<line class="cls-1" x1="4.14" y1="1.67" x2="1.75" y2="1.67"/>
<line class="cls-1" x1="1.75" y1="1.67" x2="1.75" y2="4.33"/>
<line class="cls-1" x1="1.75" y1="4.33" x2="2.9" y2="4.33"/>
<line class="cls-1" x1="2.9" y1="4.33" x2="4.57" y2="6"/>
<line class="cls-1" x1="4.57" y1="6" x2="1.7" y2="6"/>
<line class="cls-1" x1="1.7" y1="6" y2="4.28"/></g><g id="f">
<line class="cls-1" y1="8.55" y2="1.75"/>
<line class="cls-1" y1="1.75" x2="1.76"/>
<line class="cls-1" x1="1.76" x2="3.51"/>
<line class="cls-1" x1="3.51" x2="3.51" y2="1.75"/>
<line class="cls-1" x1="3.51" y1="1.75" x2="1.76"/>
<line class="cls-1" x1="1.76" x2="1.76" y2="2.55"/>
<line class="cls-1" x1="1.76" y1="2.55" x2="3.51" y2="2.55"/>
<line class="cls-1" x1="3.51" y1="2.55" x2="1.76" y2="4.3"/>
<line class="cls-1" x1="1.76" y1="4.3" x2="1.76" y2="8.55"/>
<line class="cls-1" x1="1.76" y1="8.55" y2="8.55"/></g><g id="g">
<line class="cls-1" y1="4.28" y2="1.71"/>
<line class="cls-1" y1="1.71" x2="1.72"/>
<line class="cls-1" x1="1.72" x2="4.28"/>
<line class="cls-1" x1="4.28" x2="6" y2="1.71"/>
<line class="cls-1" x1="6" y1="1.71" x2="6" y2="6.8"/>
<line class="cls-1" x1="6" y1="6.8" x2="4.23" y2="8.55"/>
<line class="cls-1" x1="4.23" y1="8.55" x2="2.48" y2="6.8"/>
<line class="cls-1" x1="2.48" y1="6.8" x2="4.23" y2="6.8"/>
<line class="cls-1" x1="4.23" y1="6.8" x2="4.23" y2="1.67"/>
<line class="cls-1" x1="4.23" y1="1.67" x2="1.75" y2="1.67"/>
<line class="cls-1" x1="1.75" y1="1.67" x2="1.75" y2="4.33"/>
<line class="cls-1" x1="1.75" y1="4.33" x2="4.11" y2="4.33"/>
<line class="cls-1" x1="4.11" y1="4.33" x2="2.45" y2="6"/>
<line class="cls-1" x1="2.45" y1="6" x2="1.72" y2="6"/>
<line class="cls-1" x1="1.72" y1="6" y2="4.28"/></g><g id="h">
<line class="cls-1" y2="6.84"/>
<line class="cls-1" y1="6.84" x2="1.76" y2="8.6"/>
<line class="cls-1" x1="1.76" y1="8.6" x2="1.76"/>
<line class="cls-1" x1="1.76"/>
<line class="cls-1" x1="1.76" y1="4.22" x2="3.43" y2="2.55"/>
<line class="cls-1" x1="3.43" y1="2.55" x2="3.67" y2="2.55"/>
<line class="cls-1" x1="3.67" y1="2.55" x2="5.37" y2="4.27"/>
<line class="cls-1" x1="5.37" y1="4.27" x2="5.37" y2="8.55"/>
<line class="cls-1" x1="5.37" y1="8.55" x2="3.62" y2="8.55"/>
<line class="cls-1" x1="3.62" y1="8.55" x2="3.62" y2="4.22"/>
<line class="cls-1" x1="3.62" y1="4.22" x2="1.76" y2="4.22"/></g><g id="i">
<line class="cls-1" y1="6.84" y2="2.55"/>
<line class="cls-1" y1="2.55" x2="1.75" y2="2.55"/>
<line class="cls-1" x1="1.75" y1="2.55" x2="1.75" y2="8.59"/>
<line class="cls-1" x1="1.75" y1="8.59" y2="6.84"/>
<line class="cls-1" x2="1.75"/>
<line class="cls-1" x1="1.75" x2="1.75" y2="1.75"/>
<line class="cls-1" x1="1.75" y1="1.75"/></g><g id="j">
<line class="cls-1" x1="1.75" y1="2.55" x2="3.51" y2="2.55"/>
<line class="cls-1" x1="3.51" y1="2.55" x2="3.5" y2="9.35"/>
<line class="cls-1" x1="3.5" y1="9.35" x2="1.75" y2="11.11"/>
<line class="cls-1" x1="1.75" y1="11.11" y2="9.35"/>
<line class="cls-1" y1="9.35" x2="1.75" y2="9.35"/>
<line class="cls-1" x1="1.75" y1="9.35" x2="1.75" y2="2.55"/>
<line class="cls-1" x1="1.75" x2="3.51"/>
<line class="cls-1" x1="3.51" x2="3.51" y2="1.76"/>
<line class="cls-1" x1="3.51" y1="1.76" x2="1.75"/></g><g id="k">
<line class="cls-1" x2="1.76"/>
<line class="cls-1" x1="1.76" x2="1.76" y2="2.55"/>
<line class="cls-1" x1="1.76" y1="2.55" x2="3.43" y2="2.55"/>
<line class="cls-1" x1="3.43" y1="2.55" x2="1.76" y2="4.22"/>
<line class="cls-1" x1="1.76" y1="4.22" x2="6.08" y2="8.55"/>
<line class="cls-1" x1="6.08" y1="8.55" x2="3.73" y2="8.55"/>
<line class="cls-1" x1="3.73" y1="8.55" x2="1.76" y2="6.58"/>
<line class="cls-1" x1="1.76" y1="6.58" x2="1.76" y2="8.6"/>
<line class="cls-1" x1="1.76" y1="8.6" y2="6.84"/>
<line class="cls-1" y1="6.84"/></g><g id="l">
<line class="cls-1" y1="6.84"/>
<line class="cls-1" x2="1.76"/>
<line class="cls-1" x1="1.76" x2="1.76" y2="8.59"/>
<line class="cls-1" x1="1.76" y1="8.59" y2="6.84"/></g><g id="m">
<line class="cls-1" y1="6.04"/>
<line class="cls-1" x2="1.75" y2="1.72"/>
<line class="cls-1" x1="1.75" y1="1.72" x2="3.43" y2="0.05"/>
<line class="cls-1" x1="3.43" y1="0.05" x2="3.66" y2="0.05"/>
<line class="cls-1" x1="3.66" y1="0.05" x2="5.37" y2="1.72"/>
<line class="cls-1" x1="5.37" y1="1.72" x2="7.04" y2="0.05"/>
<line class="cls-1" x1="7.04" y1="0.05" x2="7.28" y2="0.05"/>
<line class="cls-1" x1="7.28" y1="0.05" x2="8.99" y2="1.76"/>
<line class="cls-1" x1="8.99" y1="1.76" x2="8.99" y2="6.08"/>
<line class="cls-1" x1="8.99" y1="6.08" x2="7.24" y2="4.38"/>
<line class="cls-1" x1="7.24" y1="4.38" x2="7.24" y2="1.72"/>
<line class="cls-1" x1="7.24" y1="1.72" x2="5.37" y2="1.72"/>
<line class="cls-1" x1="5.37" y1="1.72" x2="5.37" y2="6.04"/>
<line class="cls-1" x1="5.37" y1="6.04" x2="3.62" y2="6.04"/>
<line class="cls-1" x1="3.62" y1="6.04" x2="3.62" y2="1.72"/>
<line class="cls-1" x1="3.62" y1="1.72" x2="1.75" y2="1.72"/>
<line class="cls-1" x1="1.75" y1="1.72" x2="1.75" y2="6.04"/>
<line class="cls-1" x1="1.75" y1="6.04" y2="6.04"/></g><g id="n">
<line class="cls-1" y1="6.04"/>
<line class="cls-1" x2="1.76" y2="1.72"/>
<line class="cls-1" x1="1.76" y1="1.72" x2="3.43" y2="0.05"/>
<line class="cls-1" x1="3.51" y1="0.05" x2="3.67" y2="0.05"/>
<line class="cls-1" x1="3.67" y1="0.05" x2="5.38" y2="1.76"/>
<line class="cls-1" x1="5.38" y1="1.76" x2="5.38" y2="6.09"/>
<line class="cls-1" x1="5.38" y1="6.16" x2="3.62" y2="4.38"/>
<line class="cls-1" x1="3.62" y1="4.38" x2="3.62" y2="1.72"/>
<line class="cls-1" x1="3.62" y1="1.72" x2="1.76" y2="1.72"/>
<line class="cls-1" x1="1.76" y1="1.72" x2="1.76" y2="6.04"/>
<line class="cls-1" x1="1.76" y1="6.04" y2="6.04"/></g><g id="o">
<line class="cls-1" y1="4.28" y2="1.71"/>
<line class="cls-1" y1="1.71" x2="1.7"/>
<line class="cls-1" x1="1.7" x2="4.28"/>
<line class="cls-1" x1="4.28" x2="6" y2="1.71"/>
<line class="cls-1" x1="6" y1="1.71" x2="6" y2="4.28"/>
<line class="cls-1" x1="6" y1="4.28" x2="4.23" y2="6"/>
<line class="cls-1" x1="4.23" y1="6" x2="1.7" y2="6"/>
<line class="cls-1" x1="1.7" y1="6" y2="4.28"/>
<line class="cls-1" x1="1.75" y1="4.33" x2="1.75" y2="1.67"/>
<line class="cls-1" x1="1.75" y1="1.67" x2="4.23" y2="1.67"/>
<line class="cls-1" x1="4.23" y1="1.67" x2="4.28" y2="4.28"/>
<line class="cls-1" x1="4.28" y1="4.28" x2="1.75" y2="4.33"/></g><g id="p">
<line class="cls-1" y1="6.88"/>
<line class="cls-1" x2="1.75"/>
<line class="cls-1" x1="1.75" x2="1.75" y2="1.67"/>
<line class="cls-1" x1="1.75" y1="1.67" x2="3.42"/>
<line class="cls-1" x1="3.42" x2="4.28"/>
<line class="cls-1" x1="4.28" x2="6" y2="1.71"/>
<line class="cls-1" x1="6" y1="1.71" x2="6" y2="4.28"/>
<line class="cls-1" x1="6" y1="4.28" x2="4.28" y2="6"/>
<line class="cls-1" x1="4.28" y1="6" x2="3.54" y2="6"/>
<line class="cls-1" x1="3.54" y1="6" x2="1.87" y2="4.33"/>
<line class="cls-1" x1="1.87" y1="4.33" x2="4.23" y2="4.33"/>
<line class="cls-1" x1="4.23" y1="4.33" x2="4.23" y2="1.67"/>
<line class="cls-1" x1="4.23" y1="1.67" x2="1.75" y2="1.67"/>
<line class="cls-1" x1="1.75" y1="1.67" x2="1.75" y2="8.55"/>
<line class="cls-1" x1="1.75" y1="8.55" y2="6.88"/></g><g id="q">
<line class="cls-1" y1="4.29" y2="1.71"/>
<line class="cls-1" y1="1.71" x2="1.46" y2="0.24"/>
<line class="cls-1" x1="1.46" y1="0.24" x2="1.7"/>
<line class="cls-1" x1="1.7" x2="2.57"/>
<line class="cls-1" x1="2.57" x2="4.23" y2="1.67"/>
<line class="cls-1" x1="4.23" y1="1.67" x2="4.23"/>
<line class="cls-1" x1="4.23" x2="5.98"/>
<line class="cls-1" x1="5.98" x2="6" y2="8.55"/>
<line class="cls-1" x1="6" y1="8.55" x2="4.23" y2="6.88"/>
<line class="cls-1" x1="4.23" y1="6.88" x2="4.23" y2="1.67"/>
<line class="cls-1" x1="4.23" y1="1.67" x2="1.75" y2="1.67"/>
<line class="cls-1" x1="1.75" y1="1.67" x2="1.75" y2="4.33"/>
<line class="cls-1" x1="1.75" y1="4.33" x2="4.11" y2="4.33"/>
<line class="cls-1" x1="4.11" y1="4.33" x2="2.45" y2="6"/>
<line class="cls-1" x1="2.45" y1="6" x2="1.7" y2="6"/>
<line class="cls-1" x1="1.7" y1="6" y2="4.29"/></g><g id="r">
<line class="cls-1" y1="4.28"/>
<line class="cls-1" x2="1.75"/>
<line class="cls-1" x1="1.75" x2="1.75" y2="1.67"/>
<line class="cls-1" x1="1.75" y1="1.67" x2="3.42"/>
<line class="cls-1" x1="3.42" x2="3.61"/>
<line class="cls-1" x1="3.61" x2="3.61" y2="1.67"/>
<line class="cls-1" x1="3.61" y1="1.67" x2="1.75" y2="1.67"/>
<line class="cls-1" x1="1.75" y1="1.67" x2="1.75" y2="6.03"/>
<line class="cls-1" x1="1.75" y1="6.03" y2="4.28"/></g><g id="s">
<line class="cls-1" y1="5.1" y2="2.69"/>
<line class="cls-1" y1="2.69" x2="2.69"/>
<line class="cls-1" x1="2.69" x2="3.48"/>
<line class="cls-1" x1="3.48" x2="5.19" y2="1.71"/>
<line class="cls-1" x1="5.19" y1="1.71" x2="5.19" y2="4.29"/>
<line class="cls-1" x1="5.19" y1="4.29" x2="3.48" y2="6"/>
<line class="cls-1" x1="3.48" y1="6" x2="0.9" y2="6"/>
<line class="cls-1" x1="0.9" y1="6" x2="2.57" y2="4.33"/>
<line class="cls-1" x1="2.57" y1="4.33" x2="3.43" y2="4.33"/>
<line class="cls-1" x1="3.43" y1="4.33" x2="3.43" y2="1.67"/>
<line class="cls-1" x1="3.43" y1="1.67" y2="5.1"/></g><g id="t">
<line class="cls-1" y1="2.55" x2="1.82" y2="2.55"/>
<line class="cls-1" x1="1.82" y1="2.55" x2="1.82"/>
<line class="cls-1" x1="1.82" x2="3.57"/>
<line class="cls-1" x1="3.57" x2="3.57" y2="2.55"/>
<line class="cls-1" x1="3.57" y1="2.55" x2="3.71" y2="2.55"/>
<line class="cls-1" x1="3.71" y1="2.55" x2="5.37" y2="4.22"/>
<line class="cls-1" x1="5.37" y1="4.22" x2="3.57" y2="4.22"/>
<line class="cls-1" x1="3.57" y1="4.22" x2="3.57" y2="8.59"/>
<line class="cls-1" x1="3.57" y1="8.59" x2="1.82" y2="6.84"/>
<line class="cls-1" x1="1.82" y1="6.84" x2="1.82" y2="4.22"/>
<line class="cls-1" x1="1.82" y1="4.22" x2="1.67" y2="4.22"/>
<line class="cls-1" x1="1.67" y1="4.22" y2="2.55"/></g><g id="u">
<line class="cls-1" y1="4.33" y2="0.05"/>
<line class="cls-1" y1="0.05" x2="1.76" y2="0.05"/>
<line class="cls-1" x1="1.76" y1="0.05" x2="1.76" y2="4.38"/>
<line class="cls-1" x1="1.76" y1="4.38" x2="3.62" y2="4.38"/>
<line class="cls-1" x1="3.62" y1="4.38" x2="3.62"/>
<line class="cls-1" x1="3.62" x2="5.39" y2="1.76"/>
<line class="cls-1" x1="5.39" y1="1.76" x2="5.39" y2="6.09"/>
<line class="cls-1" x1="5.39" y1="6.09" x2="3.62" y2="4.38"/>
<line class="cls-1" x1="3.62" y1="4.38" x2="1.96" y2="6.04"/>
<line class="cls-1" x1="1.96" y1="6.04" x2="1.72" y2="6.04"/>
<line class="cls-1" x1="1.72" y1="6.04" y2="4.33"/></g><g id="v">
<line class="cls-1" y1="3.5" y2="1.72"/>
<line class="cls-1" y1="1.72" x2="1.76"/>
<line class="cls-1" x1="1.76" x2="1.76" y2="4.38"/>
<line class="cls-1" x1="1.76" y1="4.38" x2="3.62" y2="4.38"/>
<line class="cls-1" x1="3.62" y1="4.38" x2="3.62" y2="0.05"/>
<line class="cls-1" x1="3.62" y1="0.05" x2="5.39" y2="0.05"/>
<line class="cls-1" x1="5.39" y1="0.05" x2="5.39" y2="3.49"/>
<line class="cls-1" x1="5.39" y1="3.49" x2="2.79" y2="6.04"/>
<line class="cls-1" x1="2.79" y1="6.04" x2="2.55" y2="6.04"/>
<line class="cls-1" x1="2.55" y1="6.04" y2="3.5"/></g><g id="w">
<line class="cls-1" y1="3.49" y2="0.04"/>
<line class="cls-1" y1="0.04" x2="1.76" y2="0.04"/>
<line class="cls-1" x1="1.76" y1="0.04" x2="1.76" y2="4.37"/>
<line class="cls-1" x1="1.76" y1="4.37" x2="3.62" y2="4.37"/>
<line class="cls-1" x1="3.62" y1="4.37" x2="3.62"/>
<line class="cls-1" x1="3.62" x2="5.37" y2="1.7"/>
<line class="cls-1" x1="5.37" y1="1.7" x2="5.37" y2="4.37"/>
<line class="cls-1" x1="5.37" y1="4.37" x2="7.23" y2="4.37"/>
<line class="cls-1" x1="7.23" y1="4.37" x2="7.23"/>
<line class="cls-1" x1="7.23" x2="8.99" y2="1.75"/>
<line class="cls-1" x1="8.99" y1="1.75" x2="8.99" y2="3.49"/>
<line class="cls-1" x1="8.99" y1="3.49" x2="6.44" y2="6.03"/>
<line class="cls-1" x1="6.44" y1="6.03" x2="6.2" y2="6.03"/>
<line class="cls-1" x1="6.2" y1="6.03" x2="4.51" y2="4.37"/>
<line class="cls-1" x1="4.51" y1="4.37" x2="2.83" y2="6.03"/>
<line class="cls-1" x1="2.83" y1="6.03" x2="2.59" y2="6.03"/>
<line class="cls-1" x1="2.59" y1="6.03" y2="3.49"/></g><g id="x">
<line class="cls-1" y1="4.28" x2="1.28" y2="3"/>
<line class="cls-1" x1="1.28" y1="3" y2="1.71"/>
<line class="cls-1" y1="1.71" x2="1.2" y2="0.5"/>
<line class="cls-1" x1="1.2" y1="0.5" x2="2.49" y2="1.8"/>
<line class="cls-1" x1="2.49" y1="1.8" x2="4.28"/>
<line class="cls-1" x1="4.28" x2="6.69"/>
<line class="cls-1" x1="6.69" x2="3.69" y2="3"/>
<line class="cls-1" x1="3.69" y1="3" x2="6.69" y2="6"/>
<line class="cls-1" x1="6.69" y1="6" x2="4.28" y2="6"/>
<line class="cls-1" x1="4.28" y1="6" x2="2.49" y2="4.21"/>
<line class="cls-1" x1="2.49" y1="4.21" x2="1.2" y2="5.49"/>
<line class="cls-1" x1="1.2" y1="5.49" y2="4.28"/></g><g id="y">
<line class="cls-1" y1="4.33" y2="1.76"/>
<line class="cls-1" y1="1.76" x2="1.75"/>
<line class="cls-1" x1="1.75" x2="1.76" y2="4.38"/>
<line class="cls-1" x1="1.76" y1="4.38" x2="3.62" y2="4.38"/>
<line class="cls-1" x1="3.62" y1="4.38" x2="3.62" y2="0.05"/>
<line class="cls-1" x1="5.38" y1="0.05" x2="5.38" y2="6.84"/>
<line class="cls-1" x1="5.38" y1="6.84" x2="3.62" y2="8.6"/>
<line class="cls-1" x1="3.62" y1="8.6" x2="1.87" y2="6.84"/>
<line class="cls-1" x1="1.87" y1="6.84" x2="3.62" y2="6.84"/>
<line class="cls-1" x1="3.62" y1="6.84" x2="3.62" y2="4.38"/>
<line class="cls-1" x1="3.62" y1="4.38" x2="1.95" y2="6.04"/>
<line class="cls-1" x1="1.95" y1="6.04" x2="1.71" y2="6.04"/>
<line class="cls-1" x1="1.71" y1="6.04" y2="4.33"/></g><g id="z">
<line class="cls-1" y1="1.61" x2="1.61"/>
<line class="cls-1" x1="1.61" x2="4.19"/>
<line class="cls-1" x1="4.19" x2="5.62" y2="1.44"/>
<line class="cls-1" x1="5.62" y1="1.44" x2="2.67" y2="4.39"/>
<line class="cls-1" x1="2.67" y1="4.39" x2="5.79" y2="4.39"/>
<line class="cls-1" x1="5.79" y1="4.39" x2="4.19" y2="6"/>
<line class="cls-1" x1="4.19" y1="6" x2="1.61" y2="6"/>
<line class="cls-1" x1="1.61" y1="6" x2="0.19" y2="4.57"/>
<line class="cls-1" x1="0.19" y1="4.57" x2="3.15" y2="1.61"/>
<line class="cls-1" x1="3.15" y1="1.61" y2="1.61"/></g></svg>
