<svg id="Laag_1" data-name="Laag 1" xmlns="http://www.w3.org/2000/svg" viewBox="0 0 434.28 301.9">
  <defs>
  <style>.cls-1{fill:#404040;}.cls-2{fill:#fefefe;}</style>
  </defs>
  <path class="cls-1" d="M249.68,105.05h12c10.57,2.92,17.72,9.82,24.29,18.5,19.53,25.78,39.85,51,59.78,76.46q51.48,65.88,102.79,131.92c9,11.7,20.36,22,24.56,37v10a7.6,7.6,0,0,0-.9,1.71C469.23,392.81,462,401.09,450,405.12a15.38,15.38,0,0,0-2.9,1.76h-12c-1.22-1.39-3.06-1.14-4.59-1.68-5.42-1.9-10.52-4.48-14.08-9Q380.14,350.08,344,303.77q-42.92-54.9-85.69-109.92c-2.21-2.85-3.08-2.85-5.29,0-21.76,28.06-43.69,56-65.54,84q-42.58,54.54-85.19,109.06c-3.65,4.65-6.91,9.67-11.83,13.35-4.38,3.26-9.49,4.54-14.31,6.65h-12c-1-1.3-2.45-1.64-3.87-2.07-22.63-6.81-26.8-35.64-15.17-50.4q20.34-25.83,40.52-51.78,31.24-40.06,62.42-80.18,35.53-45.55,71.16-91C227.68,120.71,234.7,108.22,249.68,105.05Z" transform="translate(-38.86 -105.05)"/>
  <path class="cls-2" d="M447.14,406.88a15.38,15.38,0,0,1,2.9-1.76c12-4,19.19-12.31,22.13-24.52a7.6,7.6,0,0,1,.9-1.71c0,8.5-.09,17,.07,25.49,0,2.15-.41,2.61-2.56,2.56C462.77,406.78,455,406.88,447.14,406.88Z" transform="translate(-38.86 -105.05)"/>
</svg>
