<svg id="Layer_1" enable-background="new 0 0 511.924 511.924" height="512" viewBox="0 0 511.924 511.924" width="512" xmlns="http://www.w3.org/2000/svg"><g><g><g clip-rule="evenodd" fill-rule="evenodd"><path d="m75.852 284.209c-15.369-8.508-26.268-24.279-28.214-42.767-27.722 8.256-30.945 43.957-13.143 58.146-36.484 14.309-33.71 83.212 18.007 80.712 0-34.695 8.439-67.391 23.35-96.091z" fill="#cff2d2"/><path d="m47.638 241.443c1.945 18.487 12.845 34.259 28.213 42.767 16.773-32.284 41.733-59.51 72.079-78.836-9.742-15.258-26.67-25.354-45.925-25.354-30.199 0-54.68 24.834-54.68 55.468.002 2.011.107 3.998.313 5.955z" fill="#fff2a0"/><path d="m102.006 180.02c19.254 0 36.183 10.096 45.925 25.354 17.492-11.14 36.773-19.654 57.307-24.998 1.172-16.109 9.634-30.162 22.053-38.775 1.492-35.739-65.578-46.845-66.28 3.036-21.872-9.03-51.63-4.089-59.005 35.383z" fill="#e8f9ea"/><path d="m227.291 141.601c-12.419 8.613-20.882 22.666-22.054 38.773 16.215-4.221 33.212-6.465 50.725-6.465s34.509 2.245 50.724 6.467c-1.172-16.109-9.634-30.162-22.054-38.775-8.163-5.661-18.036-8.972-28.671-8.972-10.634 0-20.507 3.311-28.67 8.972z" fill="#ffbdbc"/><path d="m284.633 141.601c12.419 8.613 20.882 22.666 22.054 38.773 20.534 5.345 39.814 13.86 57.306 24.999 9.742-15.258 26.67-25.354 45.925-25.354-7.375-39.472-37.132-44.413-59.004-35.383-.67-47.572-67.726-37.63-66.281-3.035z" fill="#cff2d2"/><path d="m363.993 205.374c-17.492-11.14-36.773-19.654-57.306-24.999-16.215-4.221-33.212-6.465-50.725-6.465s-34.51 2.245-50.725 6.465c-20.534 5.345-39.815 13.86-57.306 24.999-30.346 19.326-55.307 46.552-72.079 78.836-14.91 28.699-23.35 61.396-23.35 96.092 0 11.352 9.155 20.64 20.346 20.64h366.229c11.191 0 20.346-9.288 20.346-20.64 0-34.696-8.44-67.392-23.35-96.092-16.773-32.284-41.734-59.511-72.08-78.836z" fill="#fffbe1"/><path d="m409.917 180.02c-19.254 0-36.182 10.096-45.925 25.354 30.346 19.326 55.307 46.552 72.079 78.836 15.369-8.508 26.268-24.279 28.214-42.767.206-1.956.311-3.943.311-5.955.001-30.634-24.48-55.468-54.679-55.468z" fill="#fff2a0"/><path d="m464.286 241.443c-1.945 18.487-12.845 34.259-28.214 42.767 14.91 28.699 23.35 61.396 23.35 96.092 51.716 2.5 54.49-66.403 18.007-80.712 17.803-14.19 14.579-49.891-13.143-58.147z" fill="#e8f9ea"/></g><g><path d="m302.29 352.598c-5.523 0-10.004-4.477-10.004-10s4.474-10 9.997-10h.007c5.523 0 10 4.477 10 10s-4.477 10-10 10z" fill="#ffe6b4"/></g><g><path d="m355.29 299.598c-5.523 0-10.004-4.477-10.004-10s4.474-10 9.997-10h.007c5.523 0 10 4.477 10 10s-4.477 10-10 10z" fill="#ffe6b4"/></g><g><path d="m176.29 306.598c-5.523 0-10.004-4.477-10.004-10s4.474-10 9.997-10h.007c5.523 0 10 4.477 10 10s-4.477 10-10 10z" fill="#ffe6b4"/></g></g><path d="m492.643 296.896c5.068-8.738 7.036-19.676 5.107-30.495-2.5-14.024-10.99-25.43-23.169-31.577-.328-33.038-24.948-60.278-56.611-64.279-5.62-19.928-16.688-29.589-25.391-34.232-9.818-5.239-21.482-6.772-33.253-4.569-2.844-11.418-9.426-20.315-19.189-25.666-13.709-7.514-32.479-6.649-46.706 2.151-7.552 4.671-13.025 11.02-16.065 18.334-6.775-2.575-14.008-3.934-21.403-3.934-7.396 0-14.628 1.36-21.403 3.934-3.039-7.314-8.513-13.663-16.065-18.334-14.228-8.8-32.997-9.665-46.706-2.151-9.763 5.351-16.344 14.25-19.189 25.666-11.769-2.203-23.436-.668-33.253 4.569-8.703 4.643-19.771 14.304-25.391 34.232-31.663 4-56.283 31.241-56.611 64.279-12.18 6.147-20.67 17.552-23.169 31.577-1.929 10.819.04 21.757 5.107 30.495-16.494 13.014-21.932 36.067-18.12 54.456 3.694 17.826 16.899 36.437 42.947 38.769 4.064 12.091 15.407 20.819 28.738 20.819h366.229c13.331 0 24.674-8.728 28.738-20.819 26.044-2.333 39.253-20.944 42.947-38.769 3.811-18.389-1.627-41.442-18.119-54.456zm-38.046-61.408c0 13.18-5.64 25.549-15.139 34.09-8.962-15.202-19.838-29.387-32.507-42.238-8.852-8.979-18.345-17.072-28.374-24.236 8.279-8.304 19.47-13.084 31.34-13.084 24.637 0 44.68 20.397 44.68 45.468zm-150.646-110.25c8.167-5.053 19.095-5.72 26.572-1.622 6.75 3.699 10.246 10.819 10.391 21.161.046 3.313 1.73 6.387 4.497 8.21 2.766 1.823 6.256 2.156 9.318.893 10.134-4.184 20.497-4.157 28.435.079 6.221 3.319 10.914 9.137 14.027 17.34-13.794 2.79-26.326 10.066-35.702 20.799-14.456-8.361-29.807-14.933-45.781-19.627-2.458-12.856-8.91-24.614-18.552-33.59-.708-.659-1.43-1.299-2.164-1.921 1.337-6.098 5.964-9.87 8.959-11.722zm-10.651 41.955c-12.207-2.171-24.688-3.284-37.339-3.284-12.653 0-25.136 1.114-37.344 3.285 6.37-14.633 20.693-24.565 37.344-24.565 16.636 0 30.964 9.935 37.339 24.564zm-164.54-13.234c7.937-4.235 18.301-4.262 28.435-.079 3.062 1.266 6.551.931 9.318-.893 2.767-1.823 4.451-4.897 4.497-8.21.146-10.342 3.642-17.462 10.391-21.161 7.477-4.098 18.404-3.431 26.572 1.622 2.995 1.853 7.622 5.624 8.96 11.722-.75.636-1.489 1.289-2.212 1.964-9.618 8.973-16.049 20.712-18.503 33.545-15.975 4.694-31.327 11.267-45.783 19.628-9.376-10.732-21.907-18.008-35.702-20.799 3.112-8.202 7.806-14.02 14.027-17.339zm-26.754 36.061c11.87 0 23.061 4.78 31.34 13.084-10.029 7.164-19.522 15.256-28.374 24.236-12.669 12.852-23.545 27.036-32.507 42.238-9.499-8.541-15.139-20.91-15.139-34.09.001-25.071 20.044-45.468 44.68-45.468zm-81.26 157.274c-2.974-14.352 2.721-32.638 17.4-38.395 3.327-1.305 5.705-4.286 6.237-7.819.533-3.534-.861-7.083-3.656-9.311-5.724-4.562-8.418-13.142-6.864-21.858.521-2.925 2.126-8.702 6.924-13.335 4.133 12.268 11.809 23.138 22.146 31.083-11.924 25.487-18.824 53.272-20.181 82.084-16.093-3.009-20.72-16.244-22.006-22.449zm418.33 43.647h-366.228c-5.705 0-10.346-4.773-10.346-10.64 0-108.291 86.786-196.392 193.46-196.392s193.46 88.101 193.46 196.392c0 5.867-4.641 10.64-10.346 10.64zm52.102-43.647c-1.286 6.206-5.912 19.441-22.006 22.449-1.357-28.812-8.256-56.597-20.181-82.084 10.336-7.944 18.012-18.815 22.146-31.083 4.798 4.633 6.403 10.41 6.924 13.335 1.554 8.717-1.141 17.297-6.864 21.858-2.795 2.228-4.188 5.777-3.656 9.311s2.91 6.515 6.237 7.819c14.679 5.757 20.374 24.043 17.4 38.395z" fill="#ffc144"/></g></svg>